<svg width="2896" height="2896" viewBox="0 0 2896 2896" fill="none" xmlns="http://www.w3.org/2000/svg">
<path fill-rule="evenodd" clip-rule="evenodd" d="M2896 0H0V974.951H261.836C361.583 974.951 448.75 994.721 523.336 1034.26C597.922 1073.8 655.434 1129.51 695.872 1201.41C737.209 1272.4 757.878 1354.62 757.878 1448.08C757.878 1540.64 737.209 1622.86 695.872 1694.75C655.434 1766.64 597.473 1822.36 521.988 1861.9C447.402 1901.43 360.685 1921.2 261.836 1921.2H0V2896H2896V1731.81C2852.87 1805.5 2819.89 1827.3 2746.2 1868.64C2672.51 1909.97 2591.19 1930.64 2502.22 1930.64C2413.26 1930.64 2331.48 1909.97 2256.9 1868.64C2183.21 1827.3 2124.35 1769.79 2080.32 1696.1C2037.18 1621.51 2015.62 1537.94 2015.62 1445.38C2015.62 1352.82 2037.18 1269.7 2080.32 1196.01C2124.35 1122.33 2183.21 1064.81 2256.9 1023.48C2331.48 982.14 2413.26 961.472 2502.22 961.472C2591.19 961.472 2672.51 982.14 2746.2 1023.48C2820.78 1064.81 2853.76 1084.71 2896 1158.4V0ZM450.547 1650.27C402.022 1697.9 334.175 1721.71 247.009 1721.71H137.826V1171.75H247.009C334.175 1171.75 402.022 1196.01 450.547 1244.54C499.073 1293.06 523.336 1360.91 523.336 1448.08C523.336 1535.24 499.073 1602.64 450.547 1650.27ZM1220.93 968.212V1534.35C1220.93 1590.96 1234.86 1634.54 1262.72 1665.1C1290.57 1695.65 1331.46 1710.93 1385.38 1710.93C1439.3 1710.93 1480.63 1695.65 1509.39 1665.1C1538.14 1634.54 1552.52 1590.96 1552.52 1534.35V968.212H1783.02V1533C1783.02 1617.47 1765.05 1688.91 1729.1 1747.32C1693.16 1805.73 1644.63 1849.76 1583.53 1879.42C1523.32 1909.07 1455.92 1923.9 1381.33 1923.9C1306.75 1923.9 1239.8 1909.52 1180.49 1880.77C1122.08 1851.11 1075.8 1807.08 1041.65 1748.67C1007.51 1689.36 990.432 1617.47 990.432 1533V968.212H1220.93ZM2682.85 1644.88C2637.91 1695.2 2577.71 1720.36 2502.22 1720.36C2425.84 1720.36 2364.73 1695.65 2318.9 1646.22C2273.97 1595.9 2251.51 1528.95 2251.51 1445.38C2251.51 1360.91 2273.97 1293.96 2318.9 1244.54C2364.73 1195.11 2425.84 1170.4 2502.22 1170.4C2577.71 1170.4 2637.91 1195.56 2682.85 1245.89C2728.68 1295.31 2751.59 1361.81 2751.59 1445.38C2751.59 1528.06 2728.68 1594.55 2682.85 1644.88Z" fill="url(#paint0_linear_265_251)"/>
<defs>
<linearGradient id="paint0_linear_265_251" x1="0" y1="0" x2="2896" y2="2896" gradientUnits="userSpaceOnUse">
<stop stop-color="#FA2C05"/>
<stop offset="0.5" stop-color="#F637E3"/>
<stop offset="1" stop-color="#673AB6"/>
</linearGradient>
</defs>
</svg>
